<svg width="759" height="1258" viewBox="0 0 759 1258" fill="none" xmlns="http://www.w3.org/2000/svg">
<g opacity="0.27">
<path d="M233.005 891.752C220.219 878.966 220.265 858.19 233.108 845.348L277.791 800.664C290.634 787.821 311.41 787.776 324.196 800.562C336.982 813.348 336.936 834.124 324.093 846.966L279.41 891.65C266.567 904.492 245.791 904.538 233.005 891.752Z" fill="url(#paint0_linear)" fill-opacity="0.36"/>
<path d="M346.994 777.764C334.208 764.978 334.253 744.202 347.096 731.359L390.868 687.588C403.71 674.745 424.486 674.699 437.272 687.485C450.058 700.271 450.012 721.047 437.17 733.89L393.398 777.661C380.556 790.504 359.78 790.55 346.994 777.764Z" fill="url(#paint1_linear)" fill-opacity="0.36"/>
<path d="M460.07 664.687C447.284 651.901 447.33 631.125 460.173 618.283L504.856 573.599C517.699 560.756 538.475 560.711 551.261 573.497C564.047 586.283 564.001 607.059 551.158 619.901L506.475 664.585C493.632 677.427 472.856 677.473 460.07 664.687Z" fill="url(#paint2_linear)" fill-opacity="0.36"/>
<path d="M300.189 958.936C287.403 946.15 287.449 925.374 300.291 912.531L344.975 867.848C357.817 855.005 378.593 854.959 391.379 867.745C404.165 880.531 404.119 901.307 391.277 914.15L346.593 958.833C333.751 971.676 312.975 971.722 300.189 958.936Z" fill="url(#paint3_linear)" fill-opacity="0.36"/>
<path d="M414.177 844.947C401.391 832.161 401.437 811.385 414.28 798.543L458.051 754.771C470.894 741.928 491.67 741.883 504.456 754.668C517.242 767.454 517.196 788.231 504.353 801.073L460.582 844.845C447.739 857.687 426.963 857.733 414.177 844.947Z" fill="url(#paint4_linear)" fill-opacity="0.36"/>
<path d="M527.254 731.871C514.468 719.085 514.514 698.309 527.356 685.466L572.04 640.783C584.882 627.94 605.658 627.894 618.444 640.68C631.23 653.466 631.184 674.242 618.342 687.085L573.658 731.768C560.816 744.611 540.04 744.657 527.254 731.871Z" fill="url(#paint5_linear)" fill-opacity="0.36"/>
<path d="M367.372 1026.12C354.586 1013.33 354.632 992.557 367.475 979.715L412.158 935.031C425.001 922.188 445.777 922.143 458.563 934.929C471.349 947.715 471.303 968.491 458.46 981.333L413.777 1026.02C400.934 1038.86 380.158 1038.91 367.372 1026.12Z" fill="url(#paint6_linear)" fill-opacity="0.36"/>
<path d="M481.361 912.131C468.575 899.345 468.621 878.569 481.463 865.726L525.235 821.955C538.077 809.112 558.853 809.066 571.639 821.852C584.425 834.638 584.379 855.414 571.537 868.257L527.765 912.028C514.923 924.871 494.147 924.917 481.361 912.131Z" fill="url(#paint7_linear)" fill-opacity="0.36"/>
<path d="M594.437 799.054C581.651 786.268 581.697 765.492 594.54 752.65L639.223 707.966C652.066 695.123 672.842 695.078 685.628 707.864C698.414 720.65 698.368 741.426 685.525 754.268L640.842 798.952C627.999 811.794 607.223 811.84 594.437 799.054Z" fill="url(#paint8_linear)" fill-opacity="0.36"/>
<path d="M573.497 551.261C560.711 538.475 560.757 517.699 573.599 504.856L618.283 460.173C631.125 447.33 651.902 447.284 664.688 460.07C677.474 472.856 677.428 493.632 664.585 506.475L619.902 551.158C607.059 564.001 586.283 564.047 573.497 551.261Z" fill="url(#paint9_linear)" fill-opacity="0.36"/>
<path d="M687.485 437.272C674.699 424.486 674.745 403.71 687.588 390.868L731.359 347.096C744.202 334.253 764.978 334.208 777.764 346.994C790.55 359.78 790.504 380.556 777.662 393.398L733.89 437.17C721.047 450.012 700.271 450.058 687.485 437.272Z" fill="url(#paint10_linear)" fill-opacity="0.36"/>
<path d="M800.562 324.196C787.776 311.41 787.822 290.634 800.664 277.791L845.348 233.108C858.19 220.265 878.967 220.219 891.753 233.005C904.539 245.791 904.493 266.567 891.65 279.41L846.966 324.093C834.124 336.936 813.348 336.982 800.562 324.196Z" fill="url(#paint11_linear)" fill-opacity="0.36"/>
<path d="M640.68 618.444C627.894 605.658 627.94 584.882 640.783 572.04L685.466 527.356C698.309 514.514 719.085 514.468 731.871 527.254C744.657 540.04 744.611 560.816 731.768 573.658L687.085 618.342C674.242 631.184 653.466 631.23 640.68 618.444Z" fill="url(#paint12_linear)" fill-opacity="0.36"/>
<path d="M754.669 504.456C741.883 491.67 741.929 470.894 754.771 458.051L798.543 414.28C811.386 401.437 832.162 401.391 844.948 414.177C857.734 426.963 857.688 447.739 844.845 460.582L801.073 504.353C788.231 517.196 767.455 517.242 754.669 504.456Z" fill="url(#paint13_linear)" fill-opacity="0.36"/>
<path d="M867.745 391.379C854.959 378.593 855.005 357.817 867.848 344.975L912.531 300.291C925.374 287.449 946.15 287.403 958.936 300.189C971.722 312.975 971.676 333.751 958.833 346.593L914.15 391.277C901.307 404.119 880.531 404.165 867.745 391.379Z" fill="url(#paint14_linear)" fill-opacity="0.36"/>
<path d="M707.864 685.628C695.078 672.842 695.124 652.066 707.966 639.223L752.65 594.54C765.492 581.697 786.269 581.651 799.055 594.437C811.841 607.223 811.795 627.999 798.952 640.842L754.269 685.525C741.426 698.368 720.65 698.414 707.864 685.628Z" fill="url(#paint15_linear)" fill-opacity="0.36"/>
<path d="M821.852 571.639C809.066 558.853 809.112 538.077 821.955 525.235L865.726 481.463C878.569 468.62 899.345 468.575 912.131 481.361C924.917 494.147 924.871 514.923 912.029 527.765L868.257 571.537C855.414 584.379 834.638 584.425 821.852 571.639Z" fill="url(#paint16_linear)" fill-opacity="0.36"/>
<path d="M934.929 458.563C922.143 445.777 922.189 425.001 935.031 412.158L979.715 367.475C992.557 354.632 1013.33 354.586 1026.12 367.372C1038.91 380.158 1038.86 400.934 1026.02 413.777L981.334 458.46C968.491 471.303 947.715 471.349 934.929 458.563Z" fill="url(#paint17_linear)" fill-opacity="0.36"/>
<path d="M554.04 987.646C541.254 974.86 541.3 954.084 554.143 941.241L598.826 896.558C611.669 883.715 632.445 883.669 645.231 896.455C658.017 909.241 657.971 930.018 645.128 942.86L600.445 987.544C587.602 1000.39 566.826 1000.43 554.04 987.646Z" fill="url(#paint18_linear)" fill-opacity="0.36"/>
<path d="M668.029 873.658C655.243 860.872 655.289 840.096 668.131 827.253L711.903 783.481C724.745 770.639 745.522 770.593 758.308 783.379C771.094 796.165 771.048 816.941 758.205 829.784L714.433 873.555C701.591 886.398 680.815 886.444 668.029 873.658Z" fill="url(#paint19_linear)" fill-opacity="0.36"/>
<path d="M781.105 760.581C768.319 747.795 768.365 727.019 781.208 714.176L825.891 669.493C838.734 656.65 859.51 656.604 872.296 669.39C885.082 682.176 885.036 702.953 872.193 715.795L827.51 760.479C814.667 773.321 793.891 773.367 781.105 760.581Z" fill="url(#paint20_linear)" fill-opacity="0.36"/>
<path d="M621.224 1054.83C608.438 1042.04 608.484 1021.27 621.326 1008.42L666.01 963.742C678.852 950.899 699.629 950.853 712.415 963.639C725.201 976.425 725.155 997.201 712.312 1010.04L667.628 1054.73C654.786 1067.57 634.01 1067.62 621.224 1054.83Z" fill="url(#paint21_linear)" fill-opacity="0.36"/>
<path d="M735.212 940.841C722.426 928.055 722.472 907.279 735.315 894.437L779.086 850.665C791.929 837.822 812.705 837.776 825.491 850.562C838.277 863.348 838.231 884.124 825.388 896.967L781.617 940.739C768.774 953.581 747.998 953.627 735.212 940.841Z" fill="url(#paint22_linear)" fill-opacity="0.36"/>
<path d="M848.289 827.765C835.503 814.979 835.549 794.203 848.391 781.36L893.075 736.677C905.917 723.834 926.694 723.788 939.48 736.574C952.265 749.36 952.22 770.136 939.377 782.979L894.693 827.662C881.851 840.505 861.075 840.551 848.289 827.765Z" fill="url(#paint23_linear)" fill-opacity="0.36"/>
<path d="M688.407 1122.01C675.621 1109.23 675.667 1088.45 688.51 1075.61L733.193 1030.93C746.036 1018.08 766.812 1018.04 779.598 1030.82C792.384 1043.61 792.338 1064.38 779.495 1077.23L734.812 1121.91C721.969 1134.75 701.193 1134.8 688.407 1122.01Z" fill="url(#paint24_linear)" fill-opacity="0.36"/>
<path d="M802.396 1008.02C789.61 995.239 789.656 974.463 802.498 961.62L846.27 917.849C859.112 905.006 879.889 904.96 892.675 917.746C905.461 930.532 905.415 951.308 892.572 964.151L848.8 1007.92C835.958 1020.76 815.182 1020.81 802.396 1008.02Z" fill="url(#paint25_linear)" fill-opacity="0.36"/>
<path d="M915.472 894.948C902.686 882.162 902.732 861.386 915.575 848.544L960.258 803.86C973.101 791.017 993.877 790.971 1006.66 803.757C1019.45 816.543 1019.4 837.32 1006.56 850.162L961.877 894.846C949.034 907.688 928.258 907.734 915.472 894.948Z" fill="url(#paint26_linear)" fill-opacity="0.36"/>
<path d="M135.9 569.506C123.016 556.621 122.982 535.766 135.824 522.923L180.508 478.24C193.351 465.397 214.206 465.431 227.091 478.315C239.975 491.199 240.009 512.055 227.166 524.898L182.483 569.581C169.64 582.424 148.784 582.39 135.9 569.506Z" fill="url(#paint27_linear)" fill-opacity="0.36"/>
<path d="M249.888 455.517C237.004 442.633 236.97 421.777 249.813 408.935L293.584 365.163C306.427 352.32 327.283 352.354 340.167 365.238C353.052 378.123 353.085 398.979 340.243 411.821L296.471 455.593C283.629 468.436 262.773 468.402 249.888 455.517Z" fill="url(#paint28_linear)" fill-opacity="0.36"/>
<path d="M362.965 342.441C350.081 329.556 350.047 308.701 362.889 295.858L407.573 251.175C420.416 238.332 441.271 238.366 454.156 251.25C467.04 264.134 467.074 284.99 454.231 297.833L409.548 342.516C396.705 355.359 375.849 355.325 362.965 342.441Z" fill="url(#paint29_linear)" fill-opacity="0.36"/>
<path d="M203.6 637.206C190.716 624.322 190.682 603.466 203.525 590.623L248.208 545.94C261.051 533.097 281.907 533.131 294.791 546.015C307.675 558.9 307.709 579.756 294.867 592.598L250.183 637.282C237.34 650.124 216.485 650.09 203.6 637.206Z" fill="url(#paint30_linear)" fill-opacity="0.36"/>
<path d="M317.589 523.218C304.704 510.333 304.671 489.477 317.513 476.635L361.285 432.863C374.127 420.021 394.983 420.054 407.868 432.939C420.752 445.823 420.786 466.679 407.943 479.522L364.172 523.293C351.329 536.136 330.473 536.102 317.589 523.218Z" fill="url(#paint31_linear)" fill-opacity="0.36"/>
<path d="M430.665 410.141C417.781 397.257 417.747 376.401 430.59 363.558L475.273 318.875C488.116 306.032 508.972 306.066 521.856 318.95C534.74 331.835 534.774 352.691 521.932 365.533L477.248 410.217C464.405 423.059 443.55 423.025 430.665 410.141Z" fill="url(#paint32_linear)" fill-opacity="0.36"/>
<path d="M271.301 704.906C258.416 692.022 258.382 671.166 271.225 658.324L315.909 613.64C328.751 600.798 349.607 600.831 362.491 613.716C375.376 626.6 375.41 647.456 362.567 660.298L317.883 704.982C305.041 717.825 284.185 717.791 271.301 704.906Z" fill="url(#paint33_linear)" fill-opacity="0.36"/>
<path d="M385.289 590.918C372.405 578.034 372.371 557.178 385.214 544.335L428.985 500.564C441.828 487.721 462.684 487.755 475.568 500.639C488.452 513.523 488.486 534.379 475.643 547.222L431.872 590.993C419.029 603.836 398.173 603.802 385.289 590.918Z" fill="url(#paint34_linear)" fill-opacity="0.36"/>
<path d="M498.366 477.841C485.481 464.957 485.447 444.101 498.29 431.259L542.974 386.575C555.816 373.733 576.672 373.766 589.556 386.651C602.441 399.535 602.474 420.391 589.632 433.233L544.948 477.917C532.106 490.76 511.25 490.726 498.366 477.841Z" fill="url(#paint35_linear)" fill-opacity="0.36"/>
</g>
<defs>
<linearGradient id="paint0_linear" x1="368.982" y1="709.473" x2="549.651" y2="890.143" gradientUnits="userSpaceOnUse">
<stop offset="0.411458" stop-color="#2D9CDB"/>
<stop offset="1" stop-color="#2D9CDB" stop-opacity="0.42"/>
</linearGradient>
<linearGradient id="paint1_linear" x1="368.982" y1="709.473" x2="549.651" y2="890.143" gradientUnits="userSpaceOnUse">
<stop offset="0.411458" stop-color="#2D9CDB"/>
<stop offset="1" stop-color="#2D9CDB" stop-opacity="0.42"/>
</linearGradient>
<linearGradient id="paint2_linear" x1="368.982" y1="709.473" x2="549.651" y2="890.143" gradientUnits="userSpaceOnUse">
<stop offset="0.411458" stop-color="#2D9CDB"/>
<stop offset="1" stop-color="#2D9CDB" stop-opacity="0.42"/>
</linearGradient>
<linearGradient id="paint3_linear" x1="368.982" y1="709.473" x2="549.651" y2="890.143" gradientUnits="userSpaceOnUse">
<stop offset="0.411458" stop-color="#2D9CDB"/>
<stop offset="1" stop-color="#2D9CDB" stop-opacity="0.42"/>
</linearGradient>
<linearGradient id="paint4_linear" x1="368.982" y1="709.473" x2="549.651" y2="890.143" gradientUnits="userSpaceOnUse">
<stop offset="0.411458" stop-color="#2D9CDB"/>
<stop offset="1" stop-color="#2D9CDB" stop-opacity="0.42"/>
</linearGradient>
<linearGradient id="paint5_linear" x1="368.982" y1="709.473" x2="549.651" y2="890.143" gradientUnits="userSpaceOnUse">
<stop offset="0.411458" stop-color="#2D9CDB"/>
<stop offset="1" stop-color="#2D9CDB" stop-opacity="0.42"/>
</linearGradient>
<linearGradient id="paint6_linear" x1="368.982" y1="709.473" x2="549.651" y2="890.143" gradientUnits="userSpaceOnUse">
<stop offset="0.411458" stop-color="#2D9CDB"/>
<stop offset="1" stop-color="#2D9CDB" stop-opacity="0.42"/>
</linearGradient>
<linearGradient id="paint7_linear" x1="368.982" y1="709.473" x2="549.651" y2="890.143" gradientUnits="userSpaceOnUse">
<stop offset="0.411458" stop-color="#2D9CDB"/>
<stop offset="1" stop-color="#2D9CDB" stop-opacity="0.42"/>
</linearGradient>
<linearGradient id="paint8_linear" x1="368.982" y1="709.473" x2="549.651" y2="890.143" gradientUnits="userSpaceOnUse">
<stop offset="0.411458" stop-color="#2D9CDB"/>
<stop offset="1" stop-color="#2D9CDB" stop-opacity="0.42"/>
</linearGradient>
<linearGradient id="paint9_linear" x1="709.474" y1="368.982" x2="890.143" y2="549.651" gradientUnits="userSpaceOnUse">
<stop offset="0.411458" stop-color="#2D9CDB"/>
<stop offset="1" stop-color="#2D9CDB" stop-opacity="0.42"/>
</linearGradient>
<linearGradient id="paint10_linear" x1="709.474" y1="368.982" x2="890.143" y2="549.651" gradientUnits="userSpaceOnUse">
<stop offset="0.411458" stop-color="#2D9CDB"/>
<stop offset="1" stop-color="#2D9CDB" stop-opacity="0.42"/>
</linearGradient>
<linearGradient id="paint11_linear" x1="709.474" y1="368.982" x2="890.143" y2="549.651" gradientUnits="userSpaceOnUse">
<stop offset="0.411458" stop-color="#2D9CDB"/>
<stop offset="1" stop-color="#2D9CDB" stop-opacity="0.42"/>
</linearGradient>
<linearGradient id="paint12_linear" x1="709.474" y1="368.982" x2="890.143" y2="549.651" gradientUnits="userSpaceOnUse">
<stop offset="0.411458" stop-color="#2D9CDB"/>
<stop offset="1" stop-color="#2D9CDB" stop-opacity="0.42"/>
</linearGradient>
<linearGradient id="paint13_linear" x1="709.474" y1="368.982" x2="890.143" y2="549.651" gradientUnits="userSpaceOnUse">
<stop offset="0.411458" stop-color="#2D9CDB"/>
<stop offset="1" stop-color="#2D9CDB" stop-opacity="0.42"/>
</linearGradient>
<linearGradient id="paint14_linear" x1="709.474" y1="368.982" x2="890.143" y2="549.651" gradientUnits="userSpaceOnUse">
<stop offset="0.411458" stop-color="#2D9CDB"/>
<stop offset="1" stop-color="#2D9CDB" stop-opacity="0.42"/>
</linearGradient>
<linearGradient id="paint15_linear" x1="709.474" y1="368.982" x2="890.143" y2="549.651" gradientUnits="userSpaceOnUse">
<stop offset="0.411458" stop-color="#2D9CDB"/>
<stop offset="1" stop-color="#2D9CDB" stop-opacity="0.42"/>
</linearGradient>
<linearGradient id="paint16_linear" x1="709.474" y1="368.982" x2="890.143" y2="549.651" gradientUnits="userSpaceOnUse">
<stop offset="0.411458" stop-color="#2D9CDB"/>
<stop offset="1" stop-color="#2D9CDB" stop-opacity="0.42"/>
</linearGradient>
<linearGradient id="paint17_linear" x1="709.474" y1="368.982" x2="890.143" y2="549.651" gradientUnits="userSpaceOnUse">
<stop offset="0.411458" stop-color="#2D9CDB"/>
<stop offset="1" stop-color="#2D9CDB" stop-opacity="0.42"/>
</linearGradient>
<linearGradient id="paint18_linear" x1="690.017" y1="805.367" x2="870.686" y2="986.036" gradientUnits="userSpaceOnUse">
<stop offset="0.411458" stop-color="#2D9CDB"/>
<stop offset="1" stop-color="#2D9CDB" stop-opacity="0.42"/>
</linearGradient>
<linearGradient id="paint19_linear" x1="690.017" y1="805.367" x2="870.686" y2="986.036" gradientUnits="userSpaceOnUse">
<stop offset="0.411458" stop-color="#2D9CDB"/>
<stop offset="1" stop-color="#2D9CDB" stop-opacity="0.42"/>
</linearGradient>
<linearGradient id="paint20_linear" x1="690.017" y1="805.367" x2="870.686" y2="986.036" gradientUnits="userSpaceOnUse">
<stop offset="0.411458" stop-color="#2D9CDB"/>
<stop offset="1" stop-color="#2D9CDB" stop-opacity="0.42"/>
</linearGradient>
<linearGradient id="paint21_linear" x1="690.017" y1="805.367" x2="870.686" y2="986.036" gradientUnits="userSpaceOnUse">
<stop offset="0.411458" stop-color="#2D9CDB"/>
<stop offset="1" stop-color="#2D9CDB" stop-opacity="0.42"/>
</linearGradient>
<linearGradient id="paint22_linear" x1="690.017" y1="805.367" x2="870.686" y2="986.036" gradientUnits="userSpaceOnUse">
<stop offset="0.411458" stop-color="#2D9CDB"/>
<stop offset="1" stop-color="#2D9CDB" stop-opacity="0.42"/>
</linearGradient>
<linearGradient id="paint23_linear" x1="690.017" y1="805.367" x2="870.686" y2="986.036" gradientUnits="userSpaceOnUse">
<stop offset="0.411458" stop-color="#2D9CDB"/>
<stop offset="1" stop-color="#2D9CDB" stop-opacity="0.42"/>
</linearGradient>
<linearGradient id="paint24_linear" x1="690.017" y1="805.367" x2="870.686" y2="986.036" gradientUnits="userSpaceOnUse">
<stop offset="0.411458" stop-color="#2D9CDB"/>
<stop offset="1" stop-color="#2D9CDB" stop-opacity="0.42"/>
</linearGradient>
<linearGradient id="paint25_linear" x1="690.017" y1="805.367" x2="870.686" y2="986.036" gradientUnits="userSpaceOnUse">
<stop offset="0.411458" stop-color="#2D9CDB"/>
<stop offset="1" stop-color="#2D9CDB" stop-opacity="0.42"/>
</linearGradient>
<linearGradient id="paint26_linear" x1="690.017" y1="805.367" x2="870.686" y2="986.036" gradientUnits="userSpaceOnUse">
<stop offset="0.411458" stop-color="#2D9CDB"/>
<stop offset="1" stop-color="#2D9CDB" stop-opacity="0.42"/>
</linearGradient>
<linearGradient id="paint27_linear" x1="271.699" y1="387.049" x2="453.758" y2="569.108" gradientUnits="userSpaceOnUse">
<stop offset="0.411458" stop-color="#2D9CDB"/>
<stop offset="1" stop-color="#2D9CDB" stop-opacity="0.42"/>
</linearGradient>
<linearGradient id="paint28_linear" x1="271.699" y1="387.049" x2="453.758" y2="569.108" gradientUnits="userSpaceOnUse">
<stop offset="0.411458" stop-color="#2D9CDB"/>
<stop offset="1" stop-color="#2D9CDB" stop-opacity="0.42"/>
</linearGradient>
<linearGradient id="paint29_linear" x1="271.699" y1="387.049" x2="453.758" y2="569.108" gradientUnits="userSpaceOnUse">
<stop offset="0.411458" stop-color="#2D9CDB"/>
<stop offset="1" stop-color="#2D9CDB" stop-opacity="0.42"/>
</linearGradient>
<linearGradient id="paint30_linear" x1="271.699" y1="387.049" x2="453.758" y2="569.108" gradientUnits="userSpaceOnUse">
<stop offset="0.411458" stop-color="#2D9CDB"/>
<stop offset="1" stop-color="#2D9CDB" stop-opacity="0.42"/>
</linearGradient>
<linearGradient id="paint31_linear" x1="271.699" y1="387.049" x2="453.758" y2="569.108" gradientUnits="userSpaceOnUse">
<stop offset="0.411458" stop-color="#2D9CDB"/>
<stop offset="1" stop-color="#2D9CDB" stop-opacity="0.42"/>
</linearGradient>
<linearGradient id="paint32_linear" x1="271.699" y1="387.049" x2="453.758" y2="569.108" gradientUnits="userSpaceOnUse">
<stop offset="0.411458" stop-color="#2D9CDB"/>
<stop offset="1" stop-color="#2D9CDB" stop-opacity="0.42"/>
</linearGradient>
<linearGradient id="paint33_linear" x1="271.699" y1="387.049" x2="453.758" y2="569.108" gradientUnits="userSpaceOnUse">
<stop offset="0.411458" stop-color="#2D9CDB"/>
<stop offset="1" stop-color="#2D9CDB" stop-opacity="0.42"/>
</linearGradient>
<linearGradient id="paint34_linear" x1="271.699" y1="387.049" x2="453.758" y2="569.108" gradientUnits="userSpaceOnUse">
<stop offset="0.411458" stop-color="#2D9CDB"/>
<stop offset="1" stop-color="#2D9CDB" stop-opacity="0.42"/>
</linearGradient>
<linearGradient id="paint35_linear" x1="271.699" y1="387.049" x2="453.758" y2="569.108" gradientUnits="userSpaceOnUse">
<stop offset="0.411458" stop-color="#2D9CDB"/>
<stop offset="1" stop-color="#2D9CDB" stop-opacity="0.42"/>
</linearGradient>
</defs>
</svg>
