<svg width="1116" height="1238" viewBox="0 0 1116 1238" fill="none" xmlns="http://www.w3.org/2000/svg">
<g opacity="0.82">
<path d="M113.079 294.514C122.41 278.353 143.133 272.849 159.366 282.221L215.845 314.829C232.078 324.201 237.673 344.9 228.342 361.061C219.012 377.222 198.288 382.726 182.056 373.354L125.577 340.746C109.344 331.374 103.748 310.675 113.079 294.514Z" fill="url(#paint0_linear)" fill-opacity="0.36"/>
<path d="M257.158 377.698C266.489 361.537 287.212 356.033 303.445 365.405L358.771 397.348C375.004 406.72 380.6 427.419 371.269 443.58C361.938 459.741 341.215 465.245 324.982 455.873L269.656 423.93C253.423 414.558 247.827 393.859 257.158 377.698Z" fill="url(#paint1_linear)" fill-opacity="0.36"/>
<path d="M400.085 460.217C409.415 444.055 430.139 438.552 446.371 447.924L502.85 480.532C519.083 489.904 524.679 510.603 515.348 526.764C506.017 542.925 485.294 548.429 469.061 539.057L412.582 506.449C396.349 497.077 390.754 476.378 400.085 460.217Z" fill="url(#paint2_linear)" fill-opacity="0.36"/>
<path d="M64.0513 379.432C73.382 363.271 94.1053 357.767 110.338 367.14L166.817 399.748C183.05 409.12 188.645 429.819 179.315 445.98C169.984 462.141 149.261 467.645 133.028 458.273L76.5487 425.665C60.3159 416.292 54.7206 395.594 64.0513 379.432Z" fill="url(#paint3_linear)" fill-opacity="0.36"/>
<path d="M208.13 462.617C217.461 446.455 238.184 440.952 254.417 450.324L309.744 482.266C325.976 491.638 331.572 512.337 322.241 528.498C312.91 544.66 292.187 550.163 275.954 540.791L220.628 508.849C204.395 499.477 198.8 478.778 208.13 462.617Z" fill="url(#paint4_linear)" fill-opacity="0.36"/>
<path d="M351.057 545.135C360.388 528.974 381.111 523.47 397.344 532.842L453.823 565.45C470.056 574.822 475.651 595.521 466.32 611.682C456.989 627.844 436.266 633.347 420.033 623.975L363.554 591.367C347.321 581.995 341.726 561.296 351.057 545.135Z" fill="url(#paint5_linear)" fill-opacity="0.36"/>
<path d="M15.0235 464.351C24.3542 448.19 45.0776 442.686 61.3104 452.058L117.789 484.666C134.022 494.038 139.617 514.737 130.287 530.898C120.956 547.06 100.233 552.563 84 543.191L27.521 510.583C11.2881 501.211 5.69285 480.512 15.0235 464.351Z" fill="url(#paint6_linear)" fill-opacity="0.36"/>
<path d="M159.103 547.535C168.433 531.374 189.157 525.87 205.389 535.242L260.716 567.185C276.949 576.557 282.544 597.256 273.213 613.417C263.883 629.578 243.159 635.082 226.926 625.71L171.6 593.767C155.367 584.395 149.772 563.696 159.103 547.535Z" fill="url(#paint7_linear)" fill-opacity="0.36"/>
<path d="M302.029 630.054C311.36 613.893 332.083 608.389 348.316 617.761L404.795 650.369C421.028 659.741 426.623 680.44 417.292 696.601C407.962 712.762 387.238 718.266 371.006 708.894L314.527 676.286C298.294 666.914 292.698 646.215 302.029 630.054Z" fill="url(#paint8_linear)" fill-opacity="0.36"/>
<path d="M543.454 542.991C552.785 526.83 573.508 521.326 589.741 530.698L646.22 563.306C662.453 572.678 668.048 593.377 658.717 609.538C649.387 625.699 628.663 631.203 612.431 621.831L555.952 589.223C539.719 579.851 534.123 559.152 543.454 542.991Z" fill="url(#paint9_linear)" fill-opacity="0.36"/>
<path d="M687.533 626.175C696.864 610.014 717.587 604.51 733.82 613.882L789.146 645.825C805.379 655.197 810.975 675.896 801.644 692.057C792.313 708.218 771.59 713.722 755.357 704.35L700.031 672.407C683.798 663.035 678.203 642.336 687.533 626.175Z" fill="url(#paint10_linear)" fill-opacity="0.36"/>
<path d="M830.46 708.694C839.79 692.532 860.514 687.029 876.747 696.401L933.226 729.009C949.458 738.381 955.054 759.08 945.723 775.241C936.392 791.402 915.669 796.906 899.436 787.534L842.957 754.926C826.724 745.554 821.129 724.855 830.46 708.694Z" fill="url(#paint11_linear)" fill-opacity="0.36"/>
<path d="M494.426 627.909C503.757 611.748 524.48 606.245 540.713 615.617L597.192 648.225C613.425 657.597 619.02 678.296 609.69 694.457C600.359 710.618 579.636 716.122 563.403 706.75L506.924 674.142C490.691 664.77 485.096 644.071 494.426 627.909Z" fill="url(#paint12_linear)" fill-opacity="0.36"/>
<path d="M638.505 711.094C647.836 694.932 668.559 689.429 684.792 698.801L740.119 730.743C756.352 740.115 761.947 760.814 752.616 776.975C743.285 793.137 722.562 798.64 706.329 789.268L651.003 757.326C634.77 747.954 629.175 727.255 638.505 711.094Z" fill="url(#paint13_linear)" fill-opacity="0.36"/>
<path d="M781.432 793.612C790.763 777.451 811.486 771.947 827.719 781.319L884.198 813.927C900.431 823.299 906.026 843.998 896.695 860.16C887.365 876.321 866.641 881.824 850.408 872.452L793.929 839.844C777.697 830.472 772.101 809.773 781.432 793.612Z" fill="url(#paint14_linear)" fill-opacity="0.36"/>
<path d="M445.399 712.828C454.729 696.667 475.453 691.163 491.685 700.535L548.164 733.143C564.397 742.515 569.993 763.214 560.662 779.375C551.331 795.537 530.608 801.04 514.375 791.668L457.896 759.06C441.663 749.688 436.068 728.989 445.399 712.828Z" fill="url(#paint15_linear)" fill-opacity="0.36"/>
<path d="M589.478 796.012C598.808 779.851 619.532 774.347 635.765 783.719L691.091 815.662C707.324 825.034 712.919 845.733 703.588 861.894C694.258 878.055 673.534 883.559 657.301 874.187L601.975 842.244C585.742 832.872 580.147 812.173 589.478 796.012Z" fill="url(#paint16_linear)" fill-opacity="0.36"/>
<path d="M732.404 878.531C741.735 862.37 762.458 856.866 778.691 866.238L835.17 898.846C851.403 908.218 856.998 928.917 847.667 945.078C838.337 961.239 817.613 966.743 801.381 957.371L744.902 924.763C728.669 915.391 723.073 894.692 732.404 878.531Z" fill="url(#paint17_linear)" fill-opacity="0.36"/>
<path d="M103.238 640.158C112.568 623.997 133.292 618.493 149.524 627.865L206.003 660.473C222.236 669.846 227.832 690.544 218.501 706.706C209.17 722.867 188.447 728.37 172.214 718.998L115.735 686.39C99.5021 677.018 93.9069 656.319 103.238 640.158Z" fill="url(#paint18_linear)" fill-opacity="0.36"/>
<path d="M247.317 723.342C256.647 707.181 277.371 701.677 293.603 711.049L348.93 742.992C365.163 752.364 370.758 773.063 361.427 789.224C352.097 805.385 331.373 810.889 315.14 801.517L259.814 769.574C243.581 760.202 237.986 739.504 247.317 723.342Z" fill="url(#paint19_linear)" fill-opacity="0.36"/>
<path d="M390.243 805.861C399.574 789.7 420.297 784.196 436.53 793.568L493.009 826.176C509.242 835.548 514.837 856.247 505.506 872.408C496.176 888.569 475.452 894.073 459.22 884.701L402.741 852.093C386.508 842.721 380.912 822.022 390.243 805.861Z" fill="url(#paint20_linear)" fill-opacity="0.36"/>
<path d="M54.2098 725.077C63.5405 708.916 84.2638 703.412 100.497 712.784L156.976 745.392C173.208 754.764 178.804 775.463 169.473 791.624C160.142 807.785 139.419 813.289 123.186 803.917L66.7072 771.309C50.4744 761.937 44.8791 741.238 54.2098 725.077Z" fill="url(#paint21_linear)" fill-opacity="0.36"/>
<path d="M198.289 808.261C207.62 792.1 228.343 786.596 244.576 795.968L299.902 827.911C316.135 837.283 321.73 857.982 312.399 874.143C303.069 890.304 282.345 895.808 266.113 886.436L210.786 854.493C194.553 845.121 188.958 824.422 198.289 808.261Z" fill="url(#paint22_linear)" fill-opacity="0.36"/>
<path d="M341.215 890.78C350.546 874.618 371.269 869.115 387.502 878.487L443.981 911.095C460.214 920.467 465.809 941.166 456.479 957.327C447.148 973.488 426.425 978.992 410.192 969.62L353.713 937.012C337.48 927.64 331.885 906.941 341.215 890.78Z" fill="url(#paint23_linear)" fill-opacity="0.36"/>
<path d="M5.18198 809.995C14.5127 793.834 35.236 788.331 51.4688 797.703L107.948 830.311C124.181 839.683 129.776 860.382 120.445 876.543C111.115 892.704 90.3912 898.208 74.1584 888.836L17.6794 856.228C1.44658 846.855 -4.1487 826.157 5.18198 809.995Z" fill="url(#paint24_linear)" fill-opacity="0.36"/>
<path d="M149.261 893.18C158.592 877.018 179.315 871.515 195.548 880.887L250.874 912.829C267.107 922.201 272.702 942.9 263.372 959.061C254.041 975.223 233.318 980.726 217.085 971.354L161.758 939.412C145.526 930.04 139.93 909.341 149.261 893.18Z" fill="url(#paint25_linear)" fill-opacity="0.36"/>
<path d="M292.188 975.698C301.518 959.537 322.242 954.033 338.474 963.405L394.953 996.013C411.186 1005.39 416.781 1026.08 407.451 1042.25C398.12 1058.41 377.397 1063.91 361.164 1054.54L304.685 1021.93C288.452 1012.56 282.857 991.859 292.188 975.698Z" fill="url(#paint26_linear)" fill-opacity="0.36"/>
<path d="M408.379 111.637C417.782 95.3516 438.563 89.7471 454.796 99.1191L511.275 131.727C527.508 141.099 533.045 161.899 523.643 178.184C514.24 194.47 493.459 200.074 477.226 190.702L420.747 158.094C404.514 148.722 398.977 127.923 408.379 111.637Z" fill="url(#paint27_linear)" fill-opacity="0.36"/>
<path d="M552.458 194.821C561.861 178.536 582.642 172.931 598.875 182.303L654.202 214.246C670.434 223.618 675.972 244.417 666.569 260.703C657.167 276.989 636.385 282.593 620.152 273.221L564.826 241.278C548.593 231.906 543.056 211.107 552.458 194.821Z" fill="url(#paint28_linear)" fill-opacity="0.36"/>
<path d="M695.385 277.34C704.787 261.054 725.569 255.45 741.802 264.822L798.281 297.43C814.514 306.802 820.051 327.602 810.648 343.887C801.246 360.173 780.464 365.777 764.231 356.405L707.752 323.797C691.52 314.425 685.982 293.625 695.385 277.34Z" fill="url(#paint29_linear)" fill-opacity="0.36"/>
<path d="M358.974 197.209C368.377 180.923 389.158 175.319 405.391 184.691L461.87 217.299C478.103 226.671 483.64 247.471 474.238 263.756C464.835 280.042 444.054 285.646 427.821 276.274L371.342 243.666C355.109 234.294 349.572 213.495 358.974 197.209Z" fill="url(#paint30_linear)" fill-opacity="0.36"/>
<path d="M503.054 280.393C512.456 264.108 533.238 258.503 549.47 267.875L604.797 299.818C621.03 309.19 626.567 329.989 617.164 346.275C607.762 362.56 586.98 368.165 570.747 358.793L515.421 326.85C499.188 317.478 493.651 296.679 503.054 280.393Z" fill="url(#paint31_linear)" fill-opacity="0.36"/>
<path d="M645.98 362.912C655.382 346.626 676.164 341.022 692.397 350.394L748.876 383.002C765.109 392.374 770.646 413.173 761.243 429.459C751.841 445.745 731.059 451.349 714.826 441.977L658.347 409.369C642.115 399.997 636.578 379.197 645.98 362.912Z" fill="url(#paint32_linear)" fill-opacity="0.36"/>
<path d="M309.57 282.781C318.972 266.495 339.754 260.891 355.986 270.263L412.465 302.871C428.698 312.243 434.235 333.043 424.833 349.328C415.43 365.614 394.649 371.218 378.416 361.846L321.937 329.238C305.704 319.866 300.167 299.066 309.57 282.781Z" fill="url(#paint33_linear)" fill-opacity="0.36"/>
<path d="M453.649 365.965C463.051 349.679 483.833 344.075 500.065 353.447L555.392 385.39C571.625 394.762 577.162 415.561 567.759 431.847C558.357 448.132 537.575 453.737 521.342 444.365L466.016 412.422C449.783 403.05 444.246 382.25 453.649 365.965Z" fill="url(#paint34_linear)" fill-opacity="0.36"/>
<path d="M596.575 448.484C605.978 432.198 626.759 426.593 642.992 435.965L699.471 468.574C715.704 477.946 721.241 498.745 711.838 515.031C702.436 531.316 681.654 536.921 665.422 527.549L608.943 494.941C592.71 485.569 587.173 464.769 596.575 448.484Z" fill="url(#paint35_linear)" fill-opacity="0.36"/>
</g>
<defs>
<linearGradient id="paint0_linear" x1="331.108" y1="381.376" x2="199.263" y2="609.739" gradientUnits="userSpaceOnUse">
<stop offset="0.411458" stop-color="#6FCF97"/>
<stop offset="1" stop-color="#6FCF97" stop-opacity="0.37"/>
</linearGradient>
<linearGradient id="paint1_linear" x1="331.108" y1="381.376" x2="199.263" y2="609.739" gradientUnits="userSpaceOnUse">
<stop offset="0.411458" stop-color="#6FCF97"/>
<stop offset="1" stop-color="#6FCF97" stop-opacity="0.37"/>
</linearGradient>
<linearGradient id="paint2_linear" x1="331.108" y1="381.376" x2="199.263" y2="609.739" gradientUnits="userSpaceOnUse">
<stop offset="0.411458" stop-color="#6FCF97"/>
<stop offset="1" stop-color="#6FCF97" stop-opacity="0.37"/>
</linearGradient>
<linearGradient id="paint3_linear" x1="331.108" y1="381.376" x2="199.263" y2="609.739" gradientUnits="userSpaceOnUse">
<stop offset="0.411458" stop-color="#6FCF97"/>
<stop offset="1" stop-color="#6FCF97" stop-opacity="0.37"/>
</linearGradient>
<linearGradient id="paint4_linear" x1="331.108" y1="381.376" x2="199.263" y2="609.739" gradientUnits="userSpaceOnUse">
<stop offset="0.411458" stop-color="#6FCF97"/>
<stop offset="1" stop-color="#6FCF97" stop-opacity="0.37"/>
</linearGradient>
<linearGradient id="paint5_linear" x1="331.108" y1="381.376" x2="199.263" y2="609.739" gradientUnits="userSpaceOnUse">
<stop offset="0.411458" stop-color="#6FCF97"/>
<stop offset="1" stop-color="#6FCF97" stop-opacity="0.37"/>
</linearGradient>
<linearGradient id="paint6_linear" x1="331.108" y1="381.376" x2="199.263" y2="609.739" gradientUnits="userSpaceOnUse">
<stop offset="0.411458" stop-color="#6FCF97"/>
<stop offset="1" stop-color="#6FCF97" stop-opacity="0.37"/>
</linearGradient>
<linearGradient id="paint7_linear" x1="331.108" y1="381.376" x2="199.263" y2="609.739" gradientUnits="userSpaceOnUse">
<stop offset="0.411458" stop-color="#6FCF97"/>
<stop offset="1" stop-color="#6FCF97" stop-opacity="0.37"/>
</linearGradient>
<linearGradient id="paint8_linear" x1="331.108" y1="381.376" x2="199.263" y2="609.739" gradientUnits="userSpaceOnUse">
<stop offset="0.411458" stop-color="#6FCF97"/>
<stop offset="1" stop-color="#6FCF97" stop-opacity="0.37"/>
</linearGradient>
<linearGradient id="paint9_linear" x1="761.483" y1="629.853" x2="629.638" y2="858.216" gradientUnits="userSpaceOnUse">
<stop offset="0.411458" stop-color="#6FCF97"/>
<stop offset="1" stop-color="#6FCF97" stop-opacity="0.37"/>
</linearGradient>
<linearGradient id="paint10_linear" x1="761.483" y1="629.853" x2="629.638" y2="858.216" gradientUnits="userSpaceOnUse">
<stop offset="0.411458" stop-color="#6FCF97"/>
<stop offset="1" stop-color="#6FCF97" stop-opacity="0.37"/>
</linearGradient>
<linearGradient id="paint11_linear" x1="761.483" y1="629.853" x2="629.638" y2="858.216" gradientUnits="userSpaceOnUse">
<stop offset="0.411458" stop-color="#6FCF97"/>
<stop offset="1" stop-color="#6FCF97" stop-opacity="0.37"/>
</linearGradient>
<linearGradient id="paint12_linear" x1="761.483" y1="629.853" x2="629.638" y2="858.216" gradientUnits="userSpaceOnUse">
<stop offset="0.411458" stop-color="#6FCF97"/>
<stop offset="1" stop-color="#6FCF97" stop-opacity="0.37"/>
</linearGradient>
<linearGradient id="paint13_linear" x1="761.483" y1="629.853" x2="629.638" y2="858.216" gradientUnits="userSpaceOnUse">
<stop offset="0.411458" stop-color="#6FCF97"/>
<stop offset="1" stop-color="#6FCF97" stop-opacity="0.37"/>
</linearGradient>
<linearGradient id="paint14_linear" x1="761.483" y1="629.853" x2="629.638" y2="858.216" gradientUnits="userSpaceOnUse">
<stop offset="0.411458" stop-color="#6FCF97"/>
<stop offset="1" stop-color="#6FCF97" stop-opacity="0.37"/>
</linearGradient>
<linearGradient id="paint15_linear" x1="761.483" y1="629.853" x2="629.638" y2="858.216" gradientUnits="userSpaceOnUse">
<stop offset="0.411458" stop-color="#6FCF97"/>
<stop offset="1" stop-color="#6FCF97" stop-opacity="0.37"/>
</linearGradient>
<linearGradient id="paint16_linear" x1="761.483" y1="629.853" x2="629.638" y2="858.216" gradientUnits="userSpaceOnUse">
<stop offset="0.411458" stop-color="#6FCF97"/>
<stop offset="1" stop-color="#6FCF97" stop-opacity="0.37"/>
</linearGradient>
<linearGradient id="paint17_linear" x1="761.483" y1="629.853" x2="629.638" y2="858.216" gradientUnits="userSpaceOnUse">
<stop offset="0.411458" stop-color="#6FCF97"/>
<stop offset="1" stop-color="#6FCF97" stop-opacity="0.37"/>
</linearGradient>
<linearGradient id="paint18_linear" x1="321.267" y1="727.021" x2="189.422" y2="955.383" gradientUnits="userSpaceOnUse">
<stop offset="0.411458" stop-color="#6FCF97"/>
<stop offset="1" stop-color="#6FCF97" stop-opacity="0.37"/>
</linearGradient>
<linearGradient id="paint19_linear" x1="321.267" y1="727.021" x2="189.422" y2="955.383" gradientUnits="userSpaceOnUse">
<stop offset="0.411458" stop-color="#6FCF97"/>
<stop offset="1" stop-color="#6FCF97" stop-opacity="0.37"/>
</linearGradient>
<linearGradient id="paint20_linear" x1="321.267" y1="727.021" x2="189.422" y2="955.383" gradientUnits="userSpaceOnUse">
<stop offset="0.411458" stop-color="#6FCF97"/>
<stop offset="1" stop-color="#6FCF97" stop-opacity="0.37"/>
</linearGradient>
<linearGradient id="paint21_linear" x1="321.267" y1="727.021" x2="189.422" y2="955.383" gradientUnits="userSpaceOnUse">
<stop offset="0.411458" stop-color="#6FCF97"/>
<stop offset="1" stop-color="#6FCF97" stop-opacity="0.37"/>
</linearGradient>
<linearGradient id="paint22_linear" x1="321.267" y1="727.021" x2="189.422" y2="955.383" gradientUnits="userSpaceOnUse">
<stop offset="0.411458" stop-color="#6FCF97"/>
<stop offset="1" stop-color="#6FCF97" stop-opacity="0.37"/>
</linearGradient>
<linearGradient id="paint23_linear" x1="321.267" y1="727.021" x2="189.422" y2="955.383" gradientUnits="userSpaceOnUse">
<stop offset="0.411458" stop-color="#6FCF97"/>
<stop offset="1" stop-color="#6FCF97" stop-opacity="0.37"/>
</linearGradient>
<linearGradient id="paint24_linear" x1="321.267" y1="727.021" x2="189.422" y2="955.383" gradientUnits="userSpaceOnUse">
<stop offset="0.411458" stop-color="#6FCF97"/>
<stop offset="1" stop-color="#6FCF97" stop-opacity="0.37"/>
</linearGradient>
<linearGradient id="paint25_linear" x1="321.267" y1="727.021" x2="189.422" y2="955.383" gradientUnits="userSpaceOnUse">
<stop offset="0.411458" stop-color="#6FCF97"/>
<stop offset="1" stop-color="#6FCF97" stop-opacity="0.37"/>
</linearGradient>
<linearGradient id="paint26_linear" x1="321.267" y1="727.021" x2="189.422" y2="955.383" gradientUnits="userSpaceOnUse">
<stop offset="0.411458" stop-color="#6FCF97"/>
<stop offset="1" stop-color="#6FCF97" stop-opacity="0.37"/>
</linearGradient>
<linearGradient id="paint27_linear" x1="626.538" y1="198.275" x2="493.679" y2="428.393" gradientUnits="userSpaceOnUse">
<stop offset="0.411458" stop-color="#6FCF97"/>
<stop offset="1" stop-color="#6FCF97" stop-opacity="0.37"/>
</linearGradient>
<linearGradient id="paint28_linear" x1="626.538" y1="198.275" x2="493.679" y2="428.393" gradientUnits="userSpaceOnUse">
<stop offset="0.411458" stop-color="#6FCF97"/>
<stop offset="1" stop-color="#6FCF97" stop-opacity="0.37"/>
</linearGradient>
<linearGradient id="paint29_linear" x1="626.538" y1="198.275" x2="493.679" y2="428.393" gradientUnits="userSpaceOnUse">
<stop offset="0.411458" stop-color="#6FCF97"/>
<stop offset="1" stop-color="#6FCF97" stop-opacity="0.37"/>
</linearGradient>
<linearGradient id="paint30_linear" x1="626.538" y1="198.275" x2="493.679" y2="428.393" gradientUnits="userSpaceOnUse">
<stop offset="0.411458" stop-color="#6FCF97"/>
<stop offset="1" stop-color="#6FCF97" stop-opacity="0.37"/>
</linearGradient>
<linearGradient id="paint31_linear" x1="626.538" y1="198.275" x2="493.679" y2="428.393" gradientUnits="userSpaceOnUse">
<stop offset="0.411458" stop-color="#6FCF97"/>
<stop offset="1" stop-color="#6FCF97" stop-opacity="0.37"/>
</linearGradient>
<linearGradient id="paint32_linear" x1="626.538" y1="198.275" x2="493.679" y2="428.393" gradientUnits="userSpaceOnUse">
<stop offset="0.411458" stop-color="#6FCF97"/>
<stop offset="1" stop-color="#6FCF97" stop-opacity="0.37"/>
</linearGradient>
<linearGradient id="paint33_linear" x1="626.538" y1="198.275" x2="493.679" y2="428.393" gradientUnits="userSpaceOnUse">
<stop offset="0.411458" stop-color="#6FCF97"/>
<stop offset="1" stop-color="#6FCF97" stop-opacity="0.37"/>
</linearGradient>
<linearGradient id="paint34_linear" x1="626.538" y1="198.275" x2="493.679" y2="428.393" gradientUnits="userSpaceOnUse">
<stop offset="0.411458" stop-color="#6FCF97"/>
<stop offset="1" stop-color="#6FCF97" stop-opacity="0.37"/>
</linearGradient>
<linearGradient id="paint35_linear" x1="626.538" y1="198.275" x2="493.679" y2="428.393" gradientUnits="userSpaceOnUse">
<stop offset="0.411458" stop-color="#6FCF97"/>
<stop offset="1" stop-color="#6FCF97" stop-opacity="0.37"/>
</linearGradient>
</defs>
</svg>
