<svg width="1677" height="561" viewBox="0 0 1677 561" fill="none" xmlns="http://www.w3.org/2000/svg">
<path fill-rule="evenodd" clip-rule="evenodd" d="M1416.68 232.386C1436.99 227.579 1458.38 231.055 1476.14 242.051C1493.91 253.046 1506.6 270.66 1511.41 291.018C1516.23 311.375 1512.78 332.809 1501.83 350.603C1490.88 368.398 1473.31 381.095 1453.01 385.903L687.322 567.174C667.015 571.982 645.626 568.505 627.861 557.51C610.095 546.515 597.408 528.901 592.591 508.543C587.775 488.185 591.222 466.752 602.175 448.957C613.128 431.163 630.69 418.465 650.998 413.658L1416.68 232.386ZM935.19 589.551C955.497 584.743 976.887 588.22 994.652 599.215C1012.42 610.211 1025.1 627.825 1029.92 648.182C1034.74 668.54 1031.29 689.973 1020.34 707.768C1009.38 725.562 991.822 738.26 971.515 743.068L205.83 924.339C185.523 929.146 164.134 925.67 146.369 914.675C128.603 903.679 115.917 886.065 111.1 865.708C106.283 845.35 109.73 823.916 120.683 806.122C131.636 788.328 149.198 775.63 169.506 770.822L935.19 589.551ZM421.292 468.039C441.599 463.231 462.988 466.708 480.754 477.703C498.519 488.699 511.206 506.313 516.023 526.67C520.84 547.028 517.393 568.461 506.439 586.256C495.486 604.05 477.924 616.748 457.617 621.555L151.343 694.064C131.036 698.872 109.647 695.395 91.8813 684.4C74.1158 673.404 61.4292 655.79 56.6122 635.433C51.7952 615.075 55.2425 593.642 66.1958 575.847C77.149 558.053 94.711 545.355 115.018 540.547L421.292 468.039ZM1525.66 692.936C1545.96 688.128 1567.35 691.605 1585.12 702.6C1602.88 713.596 1615.57 731.21 1620.39 751.567C1625.2 771.925 1621.76 793.358 1610.8 811.153C1599.85 828.947 1582.29 841.645 1561.98 846.453L796.297 1027.72C775.99 1032.53 754.601 1029.06 736.835 1018.06C719.07 1007.06 706.383 989.45 701.566 969.093C696.749 948.735 700.196 927.302 711.15 909.507C722.103 891.713 739.665 879.015 759.972 874.207L1525.66 692.936ZM530.267 928.589C550.574 923.781 571.963 927.257 589.729 938.253C607.494 949.248 620.181 966.862 624.998 987.22C629.815 1007.58 626.367 1029.01 615.414 1046.81C604.461 1064.6 586.899 1077.3 566.592 1082.11L260.318 1154.61C240.011 1159.42 218.621 1155.94 200.856 1144.95C183.09 1133.95 170.404 1116.34 165.587 1095.98C160.77 1075.62 164.217 1054.19 175.17 1036.4C186.124 1018.6 203.686 1005.9 223.993 1001.1L530.267 928.589ZM1471.17 462.661C1491.48 457.854 1512.87 461.33 1530.63 472.325C1548.4 483.321 1561.08 500.935 1565.9 521.292C1570.72 541.65 1567.27 563.084 1556.32 580.878C1545.36 598.672 1527.8 611.37 1507.49 616.178L1201.22 688.686C1180.91 693.494 1159.52 690.018 1141.76 679.022C1123.99 668.027 1111.31 650.413 1106.49 630.055C1101.67 609.698 1105.12 588.264 1116.07 570.469C1127.03 552.675 1144.59 539.977 1164.9 535.17L1471.17 462.661ZM826.216 129.001C846.523 124.194 867.912 127.67 885.677 138.666C903.443 149.661 916.13 167.275 920.947 187.633C925.763 207.99 922.316 229.424 911.363 247.218C900.41 265.013 882.848 277.71 862.54 282.518L96.8558 463.789C76.5486 468.597 55.1595 465.12 37.394 454.125C19.6285 443.129 6.94189 425.516 2.12491 405.158C-2.69207 384.8 0.755197 363.367 11.7085 345.572C22.6617 327.778 40.2237 315.08 60.5309 310.273L826.216 129.001ZM1362.19 2.11166C1382.5 -2.69595 1403.89 0.780358 1421.66 11.7758C1439.42 22.7713 1452.11 40.3853 1456.93 60.7428C1461.74 81.1004 1458.3 102.534 1447.34 120.328C1436.39 138.123 1418.83 150.821 1398.52 155.628L1092.25 228.137C1071.94 232.944 1050.55 229.468 1032.78 218.472C1015.02 207.477 1002.33 189.863 997.515 169.505C992.698 149.148 996.145 127.714 1007.1 109.92C1018.05 92.1254 1035.61 79.4277 1055.92 74.6201L1362.19 2.11166ZM1044.16 1050.1C1064.47 1045.29 1085.86 1048.77 1103.63 1059.76C1121.39 1070.76 1134.08 1088.37 1138.9 1108.73C1143.71 1129.09 1140.27 1150.52 1129.31 1168.32C1118.36 1186.11 1100.8 1198.81 1080.49 1203.62L314.805 1384.89C294.498 1389.7 273.109 1386.22 255.343 1375.22C237.578 1364.23 224.891 1346.61 220.074 1326.26C215.257 1305.9 218.704 1284.47 229.658 1266.67C240.611 1248.88 258.173 1236.18 278.48 1231.37L1044.16 1050.1ZM1580.14 923.211C1600.45 918.403 1621.84 921.88 1639.61 932.875C1657.37 943.87 1670.06 961.484 1674.88 981.842C1679.69 1002.2 1676.24 1023.63 1665.29 1041.43C1654.34 1059.22 1636.78 1071.92 1616.47 1076.73L1310.2 1149.24C1289.89 1154.04 1268.5 1150.57 1250.73 1139.57C1232.97 1128.58 1220.28 1110.96 1215.46 1090.6C1210.65 1070.25 1214.09 1048.81 1225.05 1031.02C1236 1013.22 1253.56 1000.53 1273.87 995.719L1580.14 923.211Z" fill="black" fill-opacity="0.03"/>
</svg>
