<svg width="1920" height="468" viewBox="0 0 1920 468" fill="none" xmlns="http://www.w3.org/2000/svg">
<g clip-path="url(#clip0)">
<path d="M-126.5 538C-3.02063 401.885 317.7 184.417 528.329 251.077C791.616 334.402 949.792 491.737 1227.37 430.148C1504.94 368.56 1550.86 -20.6361 1720.26 89.0841C1855.78 176.86 1991.55 383.622 2039 468.5" stroke="url(#paint0_linear)" stroke-opacity="0.41" stroke-width="28.996"/>
<path d="M-123 593.193C-39.4639 462.366 151.323 200.297 246.181 198.64C364.754 196.569 359.058 338.442 439.315 334.3C519.572 330.158 544.943 211.067 625.718 224.012C706.492 236.957 678.532 415.592 765.52 449.248C852.508 482.905 969.009 198.64 1049.78 198.64C1130.56 198.64 1164.21 449.248 1338.19 449.248C1512.17 449.248 1472.3 73.8541 1542.2 75.9253C1612.1 77.9964 1711.51 254.561 1862.19 294.431C2012.86 334.3 1983.87 198.64 2047.04 198.64C2097.57 198.64 2251.74 198.64 2322.5 198.64" stroke="url(#paint1_linear)" stroke-width="31.0671"/>
<path d="M433.619 314.616C433.619 335.777 416.465 352.932 395.303 352.932C374.142 352.932 356.987 335.777 356.987 314.616C356.987 293.454 374.142 276.3 395.303 276.3C416.465 276.3 433.619 293.454 433.619 314.616Z" stroke="url(#paint2_linear)" stroke-width="17.6047"/>
<path d="M1179.23 299.082C1179.23 320.243 1162.08 337.398 1140.91 337.398C1119.75 337.398 1102.6 320.243 1102.6 299.082C1102.6 277.92 1119.75 260.766 1140.91 260.766C1162.08 260.766 1179.23 277.92 1179.23 299.082Z" stroke="url(#paint3_linear)" stroke-width="17.6047"/>
<path d="M1577.92 76.4344C1577.92 97.5958 1560.77 114.75 1539.61 114.75C1518.45 114.75 1501.29 97.5958 1501.29 76.4344C1501.29 55.273 1518.45 38.1183 1539.61 38.1183C1560.77 38.1183 1577.92 55.273 1577.92 76.4344Z" stroke="url(#paint4_linear)" stroke-width="17.6047"/>
</g>
<defs>
<linearGradient id="paint0_linear" x1="963.315" y1="359.663" x2="963.315" y2="576.097" gradientUnits="userSpaceOnUse">
<stop offset="0.161458" stop-color="#51FFC0"/>
<stop offset="1" stop-color="#FF9900" stop-opacity="0.22"/>
</linearGradient>
<linearGradient id="paint1_linear" x1="1099.75" y1="75.9167" x2="1100.01" y2="862.433" gradientUnits="userSpaceOnUse">
<stop stop-color="#51FFC0"/>
<stop offset="1" stop-color="#FF8A00"/>
</linearGradient>
<linearGradient id="paint2_linear" x1="395.821" y1="309.438" x2="448.117" y2="361.734" gradientUnits="userSpaceOnUse">
<stop stop-color="white"/>
<stop offset="1" stop-color="white" stop-opacity="0"/>
</linearGradient>
<linearGradient id="paint3_linear" x1="1141.43" y1="293.904" x2="1193.73" y2="346.2" gradientUnits="userSpaceOnUse">
<stop stop-color="white"/>
<stop offset="1" stop-color="white" stop-opacity="0"/>
</linearGradient>
<linearGradient id="paint4_linear" x1="1540.13" y1="71.2565" x2="1586.73" y2="113.715" gradientUnits="userSpaceOnUse">
<stop stop-color="white"/>
<stop offset="1" stop-color="white" stop-opacity="0"/>
</linearGradient>
<clipPath id="clip0">
<rect width="1920" height="468" fill="white"/>
</clipPath>
</defs>
</svg>
