<svg width="22" height="22" viewBox="0 0 22 22" fill="none" xmlns="http://www.w3.org/2000/svg">
<g opacity="0.45">
<path d="M11.0001 0.0457764C4.92496 0.0457764 0 4.97074 0 11.0458C0 16.4945 3.96574 21.0069 9.16548 21.8807V13.3408H6.51194V10.2676H9.16548V8.00153C9.16548 5.37227 10.7713 3.93948 13.1172 3.93948C14.2407 3.93948 15.2062 4.02319 15.4865 4.06007V6.80834L13.8595 6.80913C12.584 6.80913 12.3381 7.41511 12.3381 8.30465V10.266H15.3815L14.9846 13.3392H12.3381V21.9542C17.7806 21.2918 22 16.6644 22 11.0427C22 4.97074 17.075 0.0457764 11.0001 0.0457764Z" fill="#010002"/>
</g>
</svg>
