<svg width="36" height="36" viewBox="0 0 36 36" fill="none" xmlns="http://www.w3.org/2000/svg">
<path d="M8.49736 34.5421C6.55349 36.486 3.40187 36.486 1.458 34.5421C-0.485862 32.5982 -0.485862 29.4466 1.458 27.5027L27.5027 1.45797C29.4466 -0.485895 32.5982 -0.485895 34.5421 1.45797C36.486 3.40183 36.486 6.55346 34.5421 8.49732L8.49736 34.5421Z" fill="#979797" fill-opacity="0.21"/>
<path d="M34.5421 27.5027C36.486 29.4466 36.486 32.5982 34.5421 34.5421C32.5982 36.486 29.4466 36.486 27.5027 34.5421L1.4579 8.49732C-0.485967 6.55345 -0.485968 3.40183 1.4579 1.45797C3.40176 -0.485898 6.55338 -0.485901 8.49725 1.45796L34.5421 27.5027Z" fill="#979797" fill-opacity="0.21"/>
</svg>
