<svg width="39" height="39" viewBox="0 0 39 39" fill="none" xmlns="http://www.w3.org/2000/svg">
<path d="M5.74476 23.1608C3.5013 23.1608 1.68262 21.3421 1.68263 19.0986C1.68264 16.8552 3.50133 15.0365 5.74479 15.0365L32.4389 15.0364C34.6824 15.0364 36.501 16.8551 36.501 19.0985C36.501 21.342 34.6823 23.1607 32.4389 23.1607L5.74476 23.1608Z" fill="#27AE60" fill-opacity="0.8"/>
<path d="M23.154 32.4458C23.154 34.6893 21.3353 36.5079 19.0919 36.5079C16.8484 36.508 15.0297 34.6893 15.0298 32.4458L15.0298 5.75171C15.0298 3.50825 16.8485 1.68956 19.092 1.68955C21.3354 1.68955 23.1541 3.50823 23.1541 5.75169L23.154 32.4458Z" fill="#27AE60" fill-opacity="0.8"/>
</svg>
